<svg width="24" height="24" viewBox="0 0 24 24" fill="none" xmlns="http://www.w3.org/2000/svg">
<path d="M2.4 5.59993C2.29399 5.59843 2.18874 5.61802 2.09037 5.65755C1.99199 5.69708 1.90246 5.75577 1.82696 5.83021C1.75146 5.90464 1.69152 5.99334 1.6506 6.09114C1.60968 6.18895 1.58861 6.29391 1.58861 6.39993C1.58861 6.50595 1.60968 6.61092 1.6506 6.70872C1.69152 6.80653 1.75146 6.89523 1.82696 6.96966C1.90246 7.0441 1.99199 7.10279 2.09037 7.14232C2.18874 7.18185 2.29399 7.20143 2.4 7.19993H21.6C21.706 7.20143 21.8113 7.18185 21.9096 7.14232C22.008 7.10279 22.0975 7.0441 22.173 6.96966C22.2485 6.89523 22.3085 6.80653 22.3494 6.70872C22.3903 6.61092 22.4114 6.50595 22.4114 6.39993C22.4114 6.29391 22.3903 6.18895 22.3494 6.09114C22.3085 5.99334 22.2485 5.90464 22.173 5.83021C22.0975 5.75577 22.008 5.69708 21.9096 5.65755C21.8113 5.61802 21.706 5.59843 21.6 5.59993H2.4ZM2.4 11.1999C2.29399 11.1984 2.18874 11.218 2.09037 11.2575C1.99199 11.2971 1.90246 11.3558 1.82696 11.4302C1.75146 11.5046 1.69152 11.5933 1.6506 11.6911C1.60968 11.7889 1.58861 11.8939 1.58861 11.9999C1.58861 12.106 1.60968 12.2109 1.6506 12.3087C1.69152 12.4065 1.75146 12.4952 1.82696 12.5697C1.90246 12.6441 1.99199 12.7028 2.09037 12.7423C2.18874 12.7818 2.29399 12.8014 2.4 12.7999H21.6C21.706 12.8014 21.8113 12.7818 21.9096 12.7423C22.008 12.7028 22.0975 12.6441 22.173 12.5697C22.2485 12.4952 22.3085 12.4065 22.3494 12.3087C22.3903 12.2109 22.4114 12.106 22.4114 11.9999C22.4114 11.8939 22.3903 11.7889 22.3494 11.6911C22.3085 11.5933 22.2485 11.5046 22.173 11.4302C22.0975 11.3558 22.008 11.2971 21.9096 11.2575C21.8113 11.218 21.706 11.1984 21.6 11.1999H2.4ZM2.4 16.7999C2.29399 16.7984 2.18874 16.818 2.09037 16.8576C1.99199 16.8971 1.90246 16.9558 1.82696 17.0302C1.75146 17.1046 1.69152 17.1933 1.6506 17.2911C1.60968 17.3889 1.58861 17.4939 1.58861 17.5999C1.58861 17.706 1.60968 17.8109 1.6506 17.9087C1.69152 18.0065 1.75146 18.0952 1.82696 18.1697C1.90246 18.2441 1.99199 18.3028 2.09037 18.3423C2.18874 18.3818 2.29399 18.4014 2.4 18.3999H21.6C21.706 18.4014 21.8113 18.3818 21.9096 18.3423C22.008 18.3028 22.0975 18.2441 22.173 18.1697C22.2485 18.0952 22.3085 18.0065 22.3494 17.9087C22.3903 17.8109 22.4114 17.706 22.4114 17.5999C22.4114 17.4939 22.3903 17.3889 22.3494 17.2911C22.3085 17.1933 22.2485 17.1046 22.173 17.0302C22.0975 16.9558 22.008 16.8971 21.9096 16.8576C21.8113 16.818 21.706 16.7984 21.6 16.7999H2.4Z" fill="black"/>
</svg>
