<svg width="24" height="24" viewBox="0 0 24 24" fill="none" xmlns="http://www.w3.org/2000/svg">
<path d="M11.6387 2.00872C7.59694 2.19909 4.50001 5.67162 4.50001 9.69036V13.3241L3.17481 15.9902C3.17248 15.995 3.1702 15.9999 3.16797 16.0048C2.63485 17.1386 3.49786 18.4999 4.75098 18.4999H9.00001C9.00001 20.1479 10.3521 21.4999 12 21.4999C13.6479 21.4999 15 20.1479 15 18.4999H19.2481C20.5012 18.4999 21.3653 17.1388 20.832 16.0048C20.8298 15.9999 20.8275 15.995 20.8252 15.9902L19.5 13.3241V9.49993C19.5 5.24683 15.9316 1.80661 11.6387 2.00872ZM11.709 3.50676C15.169 3.34387 18 6.08103 18 9.49993V13.4999C17.9999 13.6158 18.0266 13.7301 18.0781 13.8339L19.4746 16.6445C19.5644 16.8369 19.4605 16.9999 19.2481 16.9999H4.75098C4.53852 16.9999 4.43546 16.8372 4.5254 16.6445V16.6435L5.92188 13.8339C5.97337 13.7301 6.00011 13.6158 6.00001 13.4999V9.69036C6.00001 6.44009 8.48973 3.65839 11.709 3.50676ZM10.5 18.4999H13.5C13.5 19.337 12.8371 19.9999 12 19.9999C11.1629 19.9999 10.5 19.337 10.5 18.4999Z" fill="black"/>
</svg>
